<mxfile host="app.diagrams.net" modified="2021-04-20T19:03:24.967Z" agent="5.0 (X11)" etag="tEid6asXGfAt-FlIV9kK" version="14.6.3" type="github">
  <diagram id="Satq4ON55eV-xSzRUZQc" name="Page-1">
    <mxGraphModel dx="825" dy="454" grid="1" gridSize="10" guides="1" tooltips="1" connect="1" arrows="1" fold="1" page="1" pageScale="1" pageWidth="2339" pageHeight="3300" background="#F1FAEE" math="0" shadow="0">
      <root>
        <mxCell id="0" />
        <mxCell id="1" parent="0" />
        <mxCell id="zH07ZrwCk-JZ4y6hPrw2-1" value="&lt;div&gt;Model&lt;/div&gt;" style="whiteSpace=wrap;html=1;aspect=fixed;rounded=0;sketch=0;fontColor=#1D3557;strokeColor=#457B9D;fillColor=#A8DADC;" vertex="1" parent="1">
          <mxGeometry x="190" y="150" width="80" height="80" as="geometry" />
        </mxCell>
        <mxCell id="zH07ZrwCk-JZ4y6hPrw2-2" value="View" style="whiteSpace=wrap;html=1;aspect=fixed;rounded=0;sketch=0;fontColor=#1D3557;strokeColor=#457B9D;fillColor=#A8DADC;" vertex="1" parent="1">
          <mxGeometry x="190" y="490" width="80" height="80" as="geometry" />
        </mxCell>
        <mxCell id="zH07ZrwCk-JZ4y6hPrw2-3" value="Controller" style="whiteSpace=wrap;html=1;aspect=fixed;rounded=0;sketch=0;fontColor=#1D3557;strokeColor=#457B9D;fillColor=#A8DADC;" vertex="1" parent="1">
          <mxGeometry x="190" y="810" width="80" height="80" as="geometry" />
        </mxCell>
        <mxCell id="zH07ZrwCk-JZ4y6hPrw2-4" value="" style="endArrow=none;html=1;fontColor=#1D3557;strokeColor=#457B9D;fillColor=#A8DADC;entryX=0.5;entryY=1;entryDx=0;entryDy=0;exitX=0.5;exitY=0;exitDx=0;exitDy=0;" edge="1" parent="1" source="zH07ZrwCk-JZ4y6hPrw2-2" target="zH07ZrwCk-JZ4y6hPrw2-1">
          <mxGeometry width="50" height="50" relative="1" as="geometry">
            <mxPoint x="650" y="470" as="sourcePoint" />
            <mxPoint x="700" y="420" as="targetPoint" />
          </mxGeometry>
        </mxCell>
        <mxCell id="zH07ZrwCk-JZ4y6hPrw2-5" value="" style="endArrow=none;html=1;fontColor=#1D3557;strokeColor=#457B9D;fillColor=#A8DADC;entryX=0.5;entryY=1;entryDx=0;entryDy=0;exitX=0.5;exitY=0;exitDx=0;exitDy=0;" edge="1" parent="1" source="zH07ZrwCk-JZ4y6hPrw2-3" target="zH07ZrwCk-JZ4y6hPrw2-2">
          <mxGeometry width="50" height="50" relative="1" as="geometry">
            <mxPoint x="650" y="470" as="sourcePoint" />
            <mxPoint x="700" y="420" as="targetPoint" />
          </mxGeometry>
        </mxCell>
        <mxCell id="zH07ZrwCk-JZ4y6hPrw2-6" value="" style="endArrow=classic;html=1;fontColor=#1D3557;strokeColor=#457B9D;fillColor=#A8DADC;exitX=1;exitY=0.5;exitDx=0;exitDy=0;" edge="1" parent="1" source="zH07ZrwCk-JZ4y6hPrw2-1">
          <mxGeometry width="50" height="50" relative="1" as="geometry">
            <mxPoint x="720" y="470" as="sourcePoint" />
            <mxPoint x="640" y="190" as="targetPoint" />
          </mxGeometry>
        </mxCell>
        <mxCell id="zH07ZrwCk-JZ4y6hPrw2-8" value="" style="whiteSpace=wrap;html=1;aspect=fixed;rounded=0;sketch=0;fontColor=#1D3557;strokeColor=#457B9D;fillColor=#A8DADC;" vertex="1" parent="1">
          <mxGeometry x="730" y="110" width="80" height="80" as="geometry" />
        </mxCell>
        <mxCell id="zH07ZrwCk-JZ4y6hPrw2-9" value="" style="whiteSpace=wrap;html=1;aspect=fixed;rounded=0;sketch=0;fontColor=#1D3557;strokeColor=#457B9D;fillColor=#A8DADC;" vertex="1" parent="1">
          <mxGeometry x="780" y="240" width="80" height="80" as="geometry" />
        </mxCell>
        <mxCell id="zH07ZrwCk-JZ4y6hPrw2-10" value="" style="whiteSpace=wrap;html=1;aspect=fixed;rounded=0;sketch=0;fontColor=#1D3557;strokeColor=#457B9D;fillColor=#A8DADC;" vertex="1" parent="1">
          <mxGeometry x="900" y="110" width="80" height="80" as="geometry" />
        </mxCell>
      </root>
    </mxGraphModel>
  </diagram>
</mxfile>
